<svg width="76" height="76" viewBox="0 0 76 76" fill="none" xmlns="http://www.w3.org/2000/svg">
<g clip-path="url(#clip0_2348_12710)">
<path d="M64.5685 27.7619C64.4414 29.4509 64.3109 31.0834 64.116 32.7105C63.903 34.4881 63.6382 36.257 63.3128 38.0173C62.4757 42.5478 61.2313 46.9592 59.4792 51.2234C57.2959 56.5375 54.4066 61.4229 50.6249 65.7597C47.3104 69.5612 43.5141 72.7776 39.0496 75.165C38.5253 75.4453 37.9783 75.6823 37.4453 75.9459C37.2929 76.0212 37.1651 76.0192 37.0101 75.9393C31.8889 73.2862 27.3766 69.8435 23.551 65.5194C19.1518 60.5474 16.0142 54.8458 13.8535 48.5883C12.7948 45.5218 12.007 42.3847 11.442 39.189C10.9868 36.6159 10.6847 34.0254 10.539 31.4182C10.4412 29.6713 10.39 27.921 10.5044 26.1707C10.5171 25.9769 10.5789 25.8777 10.7466 25.7905C13.3026 24.467 15.8558 23.1381 18.4091 21.8099C22.9175 19.4644 27.4258 17.1183 31.9348 14.7734C33.6656 13.8733 35.3991 12.9792 37.1265 12.0738C37.3002 11.9826 37.424 11.9692 37.6036 12.0718C44.3478 15.9285 51.0954 19.7787 57.8429 23.6294C59.9816 24.8498 62.119 26.0715 64.2617 27.2838C64.4866 27.411 64.6497 27.5328 64.5678 27.7612L64.5685 27.7619Z" fill="#0C0D0E"/>
<path d="M11.9671 29.4429C11.9844 28.9356 11.9571 28.0601 12.0349 27.1859C12.0542 26.9669 12.1254 26.8631 12.3158 26.7645C16.5 24.5961 20.6803 22.4197 24.8619 20.2453C28.9543 18.1176 33.0481 15.9931 37.1365 13.858C37.3621 13.7402 37.5238 13.7422 37.7421 13.8673C41.8438 16.2148 45.9509 18.553 50.056 20.8945C54.2849 23.3072 58.5097 25.7273 62.7465 28.126C63.0906 28.3211 63.1891 28.5235 63.1611 28.9036C63.0101 30.9682 62.845 33.0307 62.5649 35.0819C61.5554 42.4746 59.5478 49.557 55.9464 56.1328C52.757 61.9562 48.588 66.9348 43.1747 70.8255C41.4539 72.0625 39.6426 73.145 37.6915 73.9866C37.3422 74.137 37.0713 74.1024 36.7373 73.9306C33.0022 72.0066 29.5932 69.6231 26.5514 66.7224C23.0819 63.4136 20.2744 59.606 18.0558 55.3605C15.6882 50.8286 14.0945 46.0291 13.0996 41.0212C12.5819 38.4127 12.2459 35.7816 12.0629 33.1312C11.9864 32.0261 11.9538 30.9176 11.9651 29.4422L11.9671 29.4429ZM61.3498 29.5494C61.4137 29.357 61.252 29.3077 61.1142 29.2292C58.1344 27.5315 55.1559 25.8318 52.1767 24.1321C47.3424 21.3738 42.5073 18.6162 37.6756 15.8533C37.4799 15.7414 37.3302 15.7375 37.1266 15.844C34.9712 16.9744 32.8105 18.0929 30.6512 19.2154C25.1547 22.0729 19.6602 24.933 14.1604 27.7845C13.8729 27.9336 13.7125 28.0807 13.7065 28.4462C13.6566 31.5873 13.8669 34.7118 14.3247 37.8169C14.8012 41.0472 15.5318 44.2209 16.5659 47.322C18.4637 53.013 21.2426 58.2086 25.1926 62.7511C28.5684 66.6332 32.5603 69.729 37.098 72.1344C37.255 72.2176 37.3821 72.2176 37.5318 72.1404C37.9251 71.9387 38.3283 71.7549 38.7163 71.5445C42.7369 69.3628 46.1479 66.4375 49.1157 62.9775C53.5688 57.7858 56.5786 51.8166 58.5736 45.3087C59.5564 42.1018 60.2512 38.8288 60.7249 35.5073C61.0064 33.5347 61.2014 31.5554 61.3491 29.5501L61.3498 29.5494Z" fill="#F08824"/>
<path d="M48.0192 50.605C48.6407 49.8686 49.1657 49.0611 49.7353 48.2861C50.4647 47.2935 51.1807 46.2921 51.8967 45.2902C52.1296 44.9639 52.4763 44.896 52.8323 44.8667C53.4531 44.8155 54.0753 44.7842 54.6975 44.7482C55.3396 44.7109 55.9612 45.147 56.2147 45.7875C56.4602 46.4073 56.4988 47.0604 56.5561 47.7122C56.5966 48.1816 56.6379 48.6509 56.6838 49.1722C57.3379 48.5784 58.1318 48.376 58.9377 48.0125C58.4625 47.9739 58.0713 47.9838 57.6793 47.9998C56.8662 48.0331 56.4569 47.5385 56.6532 46.7469C56.7783 46.2429 56.9387 45.7482 57.0678 45.2449C57.1862 44.7842 57.487 44.5578 57.9448 44.5192C58.5085 44.4719 59.0721 44.426 59.637 44.3934C61.1775 44.3035 62.72 44.2449 64.2578 44.1217C64.7782 44.0805 65.2992 44.0825 65.8183 44.0359C66.7925 43.9473 67.2037 44.3281 67.0873 45.3035C66.9861 46.151 66.7446 46.9706 66.2854 47.7089C65.6206 48.7774 64.5952 49.3786 63.4779 49.8553C63.0234 50.0491 62.5596 50.2202 62.1111 50.4665C62.7213 50.4272 63.3322 50.3893 63.9424 50.348C64.341 50.3214 64.7396 50.2754 65.1342 50.3766C65.5914 50.4938 65.8495 50.9086 65.7264 51.3659C65.5541 52.0057 65.4044 52.6582 65.1575 53.27C65.0317 53.5816 64.9266 53.7973 65.1761 54.0856C65.2693 54.1934 65.2879 54.3878 65.2447 54.5629C65.0956 55.1641 65.0211 55.7813 64.8414 56.3765C64.8121 56.4737 64.8015 56.5909 64.7183 56.6408C64.2964 56.8951 64.3204 57.3638 64.1713 57.7473C64.0835 57.973 64.0269 58.2113 63.9617 58.445C63.8845 58.722 63.7647 58.979 64.0043 59.2699C64.1407 59.4357 64.1447 59.7066 64.0875 59.945C63.9577 60.4829 63.8293 61.0209 63.7075 61.5608C63.6363 61.8757 63.4447 62.0621 63.1359 62.1367C62.4485 62.3018 61.7425 62.2645 61.0458 62.3164C59.8493 62.4057 58.6509 62.4682 57.4524 62.5235C56.749 62.5561 56.5587 62.4762 55.9731 62.0295C55.7629 62.4902 55.3849 62.6247 54.8998 62.6693C54.3235 62.7226 53.7453 62.6913 53.171 62.7658C52.8809 62.8031 52.5934 62.7825 52.3405 62.6094C52.2673 62.5594 52.2041 62.5688 52.1263 62.6001C50.9817 63.0574 49.7653 62.9622 48.5755 63.0022C48.1829 63.0155 47.8129 63.0009 47.409 63.0688C46.4913 63.2226 45.5491 63.407 44.6121 63.1347C44.5522 63.1174 44.5077 63.1174 44.4578 63.1473C44.0898 63.369 43.6719 63.353 43.2673 63.383C42.7576 63.4203 42.2452 63.4323 41.7341 63.4549C41.4626 63.4669 41.2217 63.389 40.9729 63.2705C40.539 63.0648 40.0958 63.2119 39.6992 63.397C39.4404 63.5175 39.1862 63.6067 38.91 63.626C38.2446 63.6726 37.5751 63.7572 36.9117 63.7285C35.6627 63.6746 34.4356 63.9096 33.1932 63.9456C32.2204 63.9735 31.2369 64.1366 30.274 64.0754C29.546 64.0288 28.8759 64.2119 28.1772 64.2545C27.5224 64.2944 26.8669 64.3703 26.2122 64.3637C25.7743 64.359 25.3657 64.4848 24.9405 64.5195C24.313 64.5701 23.6981 64.4862 23.1019 64.2924C22.9582 64.2458 22.867 64.2465 22.7552 64.3617C22.5496 64.5747 22.2508 64.6073 21.9853 64.634C21.4017 64.6926 20.8028 64.7685 20.2285 64.6952C19.8306 64.6446 19.4859 64.7298 19.1133 64.7585C18.1151 64.835 17.111 65.092 16.1048 64.8057C16.0762 64.7978 16.037 64.7904 16.0143 64.8024C15.2923 65.1972 14.4898 65.0175 13.7272 65.116C13.326 65.1679 12.9021 65.2039 12.5354 64.9436C12.4483 64.8816 12.4243 64.9602 12.3804 65.0021C12.256 65.12 12.1109 65.2072 11.9392 65.2145C11.2658 65.2438 10.5924 65.3856 9.91827 65.2525C9.45047 65.1599 9.19494 64.7618 9.26481 64.2964C9.39923 63.3956 9.72663 62.5415 9.89964 61.6507C10.082 60.7153 10.3734 59.8078 10.5824 58.8804C10.6609 58.5316 10.6636 58.1827 10.9377 57.8731C11.0681 57.726 10.959 57.3711 11.0129 57.1115C11.0236 57.0589 10.9025 57.0829 10.8412 57.0769C10.0673 56.9976 9.74127 56.5682 9.96818 55.8252C10.3355 54.6215 10.7501 53.4318 11.1413 52.2354C11.6118 50.7974 12.0776 49.358 12.5474 47.9193C12.7204 47.39 12.9613 47.2162 13.5236 47.1863C14.7088 47.1224 15.8932 47.0571 17.0777 46.9872C17.9867 46.9339 18.895 46.8707 19.804 46.8154C20.4535 46.7762 21.0344 47.1936 21.2287 47.8447C21.403 48.4286 21.4243 49.0058 21.2713 49.613C21.0351 50.5477 20.7037 51.4478 20.3956 52.3573C20.3763 52.3872 20.3643 52.4172 20.4022 52.4411C20.4042 52.4425 20.4262 52.4119 20.4388 52.3965C20.8328 52.0184 21.0976 51.541 21.4177 51.1076C22.4378 49.7242 23.4373 48.3247 24.4348 46.9246C24.6131 46.6736 24.8507 46.5604 25.1328 46.5311C25.8941 46.4513 26.658 46.39 27.4239 46.3927C28.0295 46.3947 28.3835 46.7861 28.6649 47.2662C28.9125 47.6883 28.9884 48.1583 29.0409 48.631C29.1015 49.1682 29.1347 49.7088 29.186 50.3154C29.4535 49.6776 29.5846 49.0664 29.7762 48.4745C29.9632 47.8966 30.1269 47.3101 30.3199 46.7342C30.4157 46.4486 30.6127 46.2402 30.9268 46.1776C31.7047 46.0232 32.4985 46.0538 33.2837 45.9886C33.5479 45.9666 33.8134 45.9373 34.0783 46.0145C34.5361 46.149 34.8056 46.5811 34.6805 47.0438C34.5454 47.5444 34.3904 48.0398 34.228 48.5324C34.1741 48.6949 34.1841 48.7568 34.3704 48.7388C34.5694 48.7202 34.787 48.7608 34.9653 48.6936C35.155 48.6223 35.105 48.37 35.1663 48.2029C35.3599 47.6736 35.5316 47.1363 35.692 46.5957C35.8397 46.0971 36.1717 45.8228 36.6974 45.7868C37.5479 45.7289 38.397 45.657 39.2481 45.6044C39.4723 45.5904 39.6946 45.6583 39.8563 45.8234C39.9408 45.91 39.996 45.9273 40.0998 45.8654C40.5031 45.6257 40.9576 45.5711 41.4114 45.5425C43.0876 45.4366 44.7639 45.3448 46.4401 45.2436C46.9718 45.2116 47.5028 45.165 48.0345 45.1297C48.1782 45.1204 48.3246 45.1144 48.4677 45.1264C49.1291 45.1816 49.4559 45.6424 49.2762 46.2802C49.1205 46.8327 48.9388 47.378 48.7831 47.9313C48.66 48.3687 48.3559 48.5531 47.932 48.5937C47.7909 48.6077 47.6492 48.6177 47.4256 48.6363C48.137 49.1889 48.1503 49.8653 47.9985 50.5837C47.9852 50.5943 47.9719 50.605 47.9593 50.6163C47.9659 50.6236 47.9773 50.6376 47.9792 50.6363C47.9946 50.6276 48.0072 50.6156 48.0212 50.605H48.0192ZM37.128 53.6981C37.1087 53.5097 37.14 53.3726 37.1839 53.2334C37.854 51.101 38.5161 48.9652 39.1948 46.8354C39.286 46.5498 39.1928 46.5072 38.9453 46.5238C38.2166 46.5731 37.488 46.6184 36.7587 46.6576C36.5876 46.667 36.551 46.7615 36.5078 46.906C36.2729 47.6909 36.022 48.4705 35.7785 49.2521C35.7259 49.4206 35.6614 49.5138 35.4451 49.5384C35.0791 49.5804 34.7158 49.5824 34.3504 49.593C33.8061 49.6083 33.7755 49.6316 33.6078 50.1469C33.526 50.3992 33.4508 50.6542 33.3842 50.9112C33.2312 51.5031 33.2312 51.4884 32.6409 51.5983C32.3688 51.6489 32.3721 51.5803 32.442 51.3613C32.766 50.3493 33.0781 49.334 33.3909 48.3187C33.5366 47.8447 33.6737 47.368 33.8241 46.862C33.0395 46.8401 32.2922 46.9379 31.5423 46.9606C31.1663 46.9719 31.0732 47.167 30.984 47.4619C30.451 49.2195 29.9073 50.9738 29.3637 52.7288C29.3231 52.8599 29.2891 53.0596 29.0935 52.9778C28.8932 52.8932 28.5878 53.0343 28.4993 52.6788C28.4074 52.308 28.4214 51.9298 28.3908 51.5597C28.301 50.4711 28.2051 49.3833 28.1066 48.2954C28.0428 47.5897 27.6535 47.2042 26.992 47.2715C26.5928 47.3114 26.1895 47.2781 25.7996 47.3434C25.5314 47.388 25.2293 47.3088 25.0017 47.6283C23.4087 49.862 21.7883 52.0763 20.1766 54.2973C19.9673 54.5858 19.7414 54.6073 19.4992 54.3619C19.2177 54.0743 18.895 53.8446 18.5457 53.6455C18.3174 53.5157 18.2921 53.3253 18.4851 53.258C19.1392 53.0304 19.3861 52.4538 19.6143 51.8992C19.8918 51.2255 20.0875 50.5178 20.3157 49.824C20.4947 49.2794 20.5799 48.7275 20.4255 48.1609C20.3397 47.8454 20.0768 47.643 19.8027 47.6656C18.9875 47.7322 18.173 47.8061 17.3572 47.8567C16.1195 47.9339 14.8818 47.9978 13.6427 48.0558C13.4524 48.0644 13.3546 48.1436 13.304 48.3081C13.2714 48.4139 13.2528 48.5231 13.2188 48.6283C12.4376 51.041 11.6617 53.4551 10.8645 55.8625C10.7587 56.1814 10.8512 56.2021 11.124 56.1954C11.6897 56.1814 12.2506 56.0782 12.8182 56.1235C12.9267 56.1322 13.111 56.0776 13.0611 56.2839C12.9866 56.5935 13.0272 56.9031 13.0232 57.2114C13.0212 57.4031 12.948 57.4717 12.765 57.4564C12.5088 57.4344 12.2579 57.485 12.0051 57.5183C11.8627 57.5369 11.8174 57.5735 11.8487 57.7287C11.9452 58.204 12.0197 58.6834 12.1089 59.1607C12.4103 60.7759 12.7211 62.389 13.0092 64.0062C13.0458 64.2125 13.1157 64.2492 13.3007 64.2598C13.7472 64.2864 14.187 64.146 14.6276 64.1939C15.2318 64.2598 15.6224 64.0461 15.9172 63.5015C16.2126 62.9562 16.6099 62.4656 16.9619 61.9509C16.894 62.5381 16.7669 63.0947 16.6359 63.65C16.5407 64.0541 16.5387 64.0687 16.9426 64.0501C17.5608 64.0221 18.1797 64.0002 18.7965 63.9289C18.9928 63.9063 19.0614 63.8244 19.0986 63.65C19.1772 63.2831 19.2816 62.921 19.3542 62.5528C19.3941 62.3491 19.4886 62.2818 19.6776 62.3477C20.0482 62.4769 20.4275 62.5408 20.8208 62.5222C20.9878 62.5142 21.0583 62.5541 20.9359 62.7266C20.7369 63.0068 20.5493 63.2945 20.367 63.5854C20.3244 63.6533 20.2092 63.7179 20.2771 63.8124C20.333 63.8903 20.4468 63.8637 20.528 63.8484C20.9126 63.7771 21.3012 63.7971 21.6885 63.7791C21.9813 63.7658 22.2442 63.6866 22.3806 63.371C22.4817 63.1373 22.6534 63.1027 22.8896 63.2432C23.4499 63.5781 24.0781 63.6446 24.7156 63.6506C25.2406 63.6553 25.7231 63.4289 26.2807 63.4802C26.9508 63.5415 27.6442 63.371 28.3309 63.3923C28.627 63.4016 28.6763 63.2672 28.6357 63.0328C28.5871 62.7505 28.5219 62.4709 28.4766 62.188C28.3961 61.688 28.2437 61.1993 28.2397 60.6867C28.2384 60.5142 28.2803 60.3431 28.4667 60.3378C28.8113 60.3278 29.1274 60.18 29.4961 60.1487C29.4255 60.4496 29.3637 60.7266 29.2951 61.0016C29.2233 61.2912 29.1401 61.5774 29.0709 61.8677C28.9172 62.5148 29.4974 63.2911 30.1515 63.2412C30.7025 63.1993 31.2548 63.1826 31.8065 63.1347C33.0076 63.0295 34.2147 62.9822 35.4198 62.927C35.6201 62.9176 35.7286 62.8657 35.7718 62.67C35.855 62.2925 35.9448 61.9163 36.0353 61.5408C36.0899 61.3151 35.9987 61.2539 35.7778 61.2472C35.3546 61.2352 34.9374 61.2952 34.5175 61.3205C33.689 61.3697 32.8592 61.4077 32.0321 61.4762C31.7592 61.4989 31.7226 61.3711 31.7552 61.172C31.7978 60.911 31.8604 60.6527 31.9223 60.395C32.0094 60.0309 32.0128 60.0309 32.3169 60.2319C33.3563 60.9217 34.4995 60.9989 35.67 60.7286C36.0247 60.6467 36.1764 60.7466 36.4226 60.9723C36.9543 61.4596 37.0335 61.9849 36.7673 62.6094C36.6755 62.8244 36.7873 62.8451 36.9649 62.857C37.4554 62.891 37.9365 62.7732 38.4256 62.7811C38.7077 62.7858 39.0391 62.8877 39.1948 62.5029C39.2241 62.4303 39.3379 62.4669 39.4111 62.4489C40.0399 62.2971 40.6901 62.3637 41.3229 62.2592C41.438 62.2405 41.5857 62.2206 41.5884 62.4123C41.5917 62.5974 41.7208 62.5921 41.8453 62.5841C42.4967 62.5415 43.1475 62.4949 43.7983 62.4503C43.9361 62.4409 43.972 62.3511 43.9993 62.2292C44.1483 61.5615 44.3047 60.8944 44.4611 60.2286C44.6787 59.3045 44.8983 58.3804 45.1179 57.4564C45.1345 57.3858 45.1132 57.2846 45.2177 57.2686C45.3155 57.254 45.3455 57.3492 45.3827 57.4104C45.5065 57.6121 45.6735 57.7746 45.8432 57.9337C45.959 58.0422 45.9896 58.1408 45.949 58.3112C45.6529 59.5568 45.3807 60.8085 45.0886 62.0548C45.028 62.3125 45.0972 62.4296 45.3554 62.3817C45.9031 62.2798 46.4607 62.3564 47.0104 62.2658C47.2067 62.2332 47.2792 62.1553 47.3178 61.9935C47.3897 61.6926 47.4722 61.3937 47.5261 61.0894C47.56 60.897 47.6279 60.919 47.7324 61.0249C47.8967 61.19 48.0524 61.3737 48.2654 61.4723C48.5083 61.5848 48.6473 61.7193 48.5196 61.9995C48.465 62.12 48.4797 62.1946 48.6427 62.1627C49.1671 62.0601 49.7034 62.0994 50.2311 62.0714C50.9844 62.0322 51.6811 61.877 52.3159 61.4836C52.5295 61.3511 52.62 61.399 52.6659 61.6101C52.7271 61.893 52.9135 61.9689 53.1617 61.9103C53.6741 61.7892 54.1991 61.8591 54.7175 61.8065C55.0595 61.7718 55.1527 61.6633 55.2152 61.3597C55.3962 60.4843 55.6125 59.6161 55.8148 58.7446C55.8986 58.3824 56.1442 58.5569 56.3451 58.5868C56.5674 58.6194 56.6399 58.7173 56.5687 58.9543C56.4416 59.3771 56.3511 59.8112 56.2466 60.2406C56.0716 60.9589 56.6053 61.652 57.3326 61.652C57.6208 61.652 57.9069 61.6154 58.193 61.5954C59.1985 61.5268 60.208 61.5135 61.2135 61.4416C61.634 61.4117 62.0539 61.401 62.4738 61.3744C62.6421 61.3637 62.8624 61.3744 62.919 61.1214C63.0108 60.712 63.1159 60.3058 63.2091 59.8964C63.2464 59.7339 63.1871 59.6407 63.0021 59.6514C62.4711 59.6807 61.9394 59.696 61.4091 59.7346C60.6818 59.7872 59.9564 59.8644 59.2291 59.9137C58.9423 59.933 58.8711 59.8145 58.935 59.5196C59.0122 59.1634 59.102 58.8092 59.1533 58.449C59.2158 58.0076 59.5039 57.7726 59.8766 57.5569C59.8799 57.8691 59.7754 58.1261 59.6889 58.3864C59.6097 58.6254 59.6377 58.7446 59.9411 58.726C60.9027 58.6667 61.8662 58.6301 62.8285 58.5862C62.9489 58.5808 63.0434 58.5569 63.08 58.4204C63.1865 58.0256 63.3036 57.6334 63.4067 57.2373C63.44 57.1102 63.4207 56.9537 63.2437 56.9943C62.7939 57.0975 62.3374 57.0296 61.8849 57.0795C61.3286 57.1401 60.7669 57.1574 60.1581 57.1967C60.3118 56.9044 60.4376 56.6621 60.568 56.4218C60.6166 56.3332 60.7064 56.3206 60.7995 56.3206C61.254 56.3206 61.7092 56.278 62.1584 56.236C62.7093 56.1847 63.2663 56.236 63.814 56.1268C63.9444 56.1009 64.0003 56.0656 64.0309 55.9338C64.1254 55.525 64.2399 55.1202 64.3423 54.7134C64.4215 54.3972 64.3743 54.3652 64.0489 54.3905C63.09 54.4651 62.1291 54.5183 61.1695 54.5909C60.9566 54.6069 60.8561 54.5163 60.8288 54.3266C60.7842 54.0177 60.7064 53.7207 60.578 53.4351C60.5034 53.2687 60.574 53.1755 60.7576 53.1901C61.2807 53.2307 61.7964 53.1229 62.3181 53.1136C62.9476 53.1023 63.5757 53.031 64.2046 52.9877C64.3377 52.9784 64.3896 52.9098 64.4222 52.7834C64.5373 52.334 64.6624 51.8859 64.7928 51.4405C64.8534 51.2328 64.7616 51.1642 64.5792 51.1915C64.1161 51.2607 63.6483 51.2255 63.1858 51.2681C62.2049 51.3593 61.2208 51.3906 60.2386 51.4565C59.9312 51.4771 59.8979 51.338 59.9917 51.093C60.18 50.601 60.4662 50.1889 60.9533 49.9552C61.3133 49.7828 61.6806 49.625 62.0512 49.4765C62.885 49.1423 63.7268 48.8327 64.4827 48.3294C65.6399 47.5598 66.0332 46.392 66.2189 45.1084C66.2395 44.9646 66.2189 44.8521 66.0099 44.8694C64.8973 44.9606 63.7847 45.0525 62.6701 45.1204C61.3439 45.2016 60.0163 45.2575 58.6894 45.3268C58.4798 45.3374 58.2775 45.4173 58.0633 45.3927C57.9122 45.3754 57.8916 45.4806 57.8616 45.5977C57.7532 46.0152 57.6407 46.4313 57.513 46.8434C57.4484 47.0518 57.4977 47.1257 57.7186 47.129C58.0413 47.1337 58.3587 47.0831 58.6788 47.0638C59.6184 47.0065 60.562 46.9998 61.4983 46.9106C61.9301 46.8694 62.3633 46.9033 62.7905 46.8321C62.877 46.8174 62.9902 46.7515 63.0367 46.8334C63.0986 46.9426 63.0041 47.0531 62.9176 47.1144C62.7007 47.2675 62.4811 47.4239 62.2435 47.5391C60.8461 48.2182 59.3848 48.7488 57.9601 49.3653C57.3453 49.6316 56.9746 50.0737 56.8548 50.6782C56.7637 51.1376 56.4988 51.2148 56.1315 51.2761C55.9578 51.3054 55.9498 51.2434 55.9405 51.1123C55.854 49.9126 55.7795 48.7109 55.6657 47.5138C55.6205 47.0365 55.6298 46.5431 55.3935 46.0924C55.2338 45.7875 54.9723 45.5758 54.7081 45.5971C54.1352 45.6437 53.5623 45.6976 52.9887 45.7189C52.7518 45.7276 52.602 45.8028 52.4643 45.9939C51.1946 47.7655 49.9163 49.5311 48.64 51.2974C48.5469 51.4259 48.4431 51.5277 48.2601 51.5257C47.7616 51.5197 47.2998 51.6669 46.858 51.8886C46.7881 51.9232 46.7176 52.0111 46.6164 51.9285C46.7948 51.3579 46.9744 50.7887 47.1508 50.2182C47.2499 49.8979 47.2286 49.6043 46.9438 49.376C46.8034 49.2635 46.6411 49.2555 46.4707 49.2555C45.0959 49.2548 43.7291 49.4219 42.3556 49.4565C41.9058 49.4678 41.9065 49.4592 42.0269 49.0444C42.0668 48.9066 42.0855 48.7588 42.146 48.631C42.2785 48.3527 42.4668 48.1024 42.7942 48.0664C43.3871 48.0018 43.984 47.9572 44.5802 47.9299C45.6196 47.8827 46.657 47.8221 47.6938 47.7329C47.8595 47.7189 47.928 47.657 47.9713 47.5145C48.0964 47.101 48.2201 46.6876 48.3599 46.2788C48.4431 46.0358 48.3472 45.9792 48.127 45.9959C47.2453 46.0631 46.3636 46.137 45.4805 46.1883C44.1543 46.2655 42.8261 46.3188 41.4999 46.3953C40.5523 46.4499 39.7744 46.906 39.4943 47.892C39.2733 48.6689 39.0165 49.4352 38.7689 50.2048C38.7297 50.3267 38.7204 50.4325 38.761 50.5584C38.8841 50.9372 39.2108 51.1822 39.6746 51.1882C40.0838 51.1935 40.4924 51.1649 40.9023 51.1389C41.9843 51.0703 43.0683 51.0311 44.1483 50.9279C44.3001 50.9132 44.4285 50.9405 44.3759 51.1416C44.2688 51.549 44.1656 51.9591 43.8981 52.3C43.759 52.4771 43.5927 52.6329 43.3571 52.6535C42.7516 52.7061 42.1447 52.7547 41.5378 52.7867C40.531 52.8399 39.5235 52.8746 38.5167 52.9285C38.3238 52.9391 38.0197 52.9451 37.9624 53.0543C37.7794 53.4065 37.4128 53.4498 37.122 53.6988L37.128 53.6981ZM11.5792 58.714C11.4601 58.8378 11.4448 58.9457 11.4195 59.0509C11.2924 59.5755 11.166 60.1008 11.0369 60.6247C10.7481 61.8025 10.4606 62.9802 10.1658 64.1566C10.1106 64.3757 10.1325 64.4789 10.3987 64.4562C10.7394 64.4276 11.0781 64.3384 11.4222 64.3876C11.681 64.4243 11.7788 64.2998 11.8194 64.0687C11.874 63.7545 11.9459 63.4436 12.0071 63.13C12.0789 62.7632 12.2486 62.381 12.1981 62.0308C12.0397 60.9343 11.7981 59.8498 11.5792 58.714Z" fill="#211112"/>
<path d="M37.1247 53.677C37.4188 53.4493 37.7854 53.4067 37.9684 53.0539C38.025 52.9447 38.3291 52.9387 38.5227 52.928C39.5295 52.8741 40.537 52.8395 41.5438 52.7862C42.1507 52.7543 42.7576 52.7057 43.3631 52.6531C43.5987 52.6324 43.7644 52.4773 43.9041 52.2996C44.1716 51.9587 44.2754 51.5486 44.3819 51.1411C44.4345 50.9401 44.3061 50.9128 44.1543 50.9274C43.0743 51.0306 41.9903 51.0692 40.9083 51.1385C40.4984 51.1644 40.0898 51.1924 39.6806 51.1877C39.2168 51.1817 38.8901 50.9367 38.767 50.5579C38.7264 50.4321 38.7357 50.3262 38.7749 50.2044C39.0218 49.4354 39.2793 48.6685 39.5003 47.8915C39.7804 46.9062 40.5583 46.4495 41.5059 46.3949C42.8328 46.3183 44.1603 46.2651 45.4865 46.1878C46.3696 46.1366 47.2506 46.062 48.133 45.9954C48.3532 45.9788 48.4491 46.0354 48.3659 46.2784C48.2255 46.6865 48.1024 47.1006 47.9773 47.514C47.934 47.6572 47.8655 47.7184 47.6998 47.7324C46.663 47.8216 45.6256 47.8815 44.5862 47.9295C43.99 47.9568 43.3937 48.0014 42.8002 48.066C42.4728 48.1019 42.2838 48.3522 42.152 48.6305C42.0915 48.7583 42.0728 48.9061 42.0329 49.044C41.9118 49.4594 41.9118 49.4674 42.3616 49.4561C43.7344 49.4215 45.1012 49.2543 46.4767 49.255C46.6471 49.255 46.8094 49.2637 46.9498 49.3755C47.2346 49.6039 47.2559 49.8975 47.1568 50.2177C46.9804 50.7883 46.8008 51.3575 46.6224 51.9281C46.7236 52.0099 46.7948 51.9227 46.864 51.8881C47.3058 51.6664 47.7677 51.5193 48.2661 51.5253C48.4491 51.5273 48.5529 51.4254 48.646 51.2969C49.9223 49.5306 51.2006 47.765 52.4703 45.9934C52.6074 45.8024 52.7578 45.7271 52.9947 45.7185C53.5683 45.6978 54.1412 45.6432 54.7141 45.5966C54.9777 45.5753 55.2392 45.787 55.3995 46.092C55.6358 46.5427 55.6265 47.036 55.6717 47.5134C55.7855 48.7111 55.86 49.9121 55.9465 51.1118C55.9559 51.243 55.9638 51.3049 56.1375 51.2756C56.5048 51.2144 56.769 51.1371 56.8608 50.6777C56.9813 50.0726 57.3513 49.6305 57.9661 49.3649C59.3908 48.7484 60.8528 48.2177 62.2495 47.5387C62.4871 47.4228 62.7067 47.2664 62.9236 47.1139C63.0108 47.0527 63.1053 46.9428 63.0428 46.833C62.9962 46.7511 62.883 46.8176 62.7965 46.8316C62.3693 46.9029 61.9361 46.8689 61.5043 46.9102C60.568 46.9987 59.6244 47.0061 58.6848 47.0633C58.3647 47.0826 58.0473 47.1339 57.7246 47.1286C57.5037 47.1252 57.4544 47.0513 57.519 46.8429C57.6467 46.4315 57.7592 46.0147 57.8676 45.5973C57.8983 45.4801 57.9189 45.3749 58.0693 45.3922C58.2835 45.4169 58.4858 45.3376 58.6955 45.3263C60.0223 45.2571 61.3499 45.2012 62.6761 45.1199C63.79 45.052 64.9033 44.9602 66.0159 44.8689C66.2255 44.8516 66.2455 44.9642 66.2249 45.108C66.0392 46.3916 65.6459 47.5593 64.4887 48.3289C63.7321 48.8322 62.8904 49.1418 62.0572 49.476C61.6866 49.6245 61.3193 49.7823 60.9593 49.9547C60.4722 50.1884 60.1854 50.6005 59.9977 51.0925C59.9039 51.3375 59.9378 51.4767 60.2446 51.456C61.2268 51.3895 62.211 51.3582 63.1918 51.2676C63.6543 51.225 64.1221 51.2603 64.5852 51.1911C64.7676 51.1638 64.8594 51.233 64.7988 51.44C64.6684 51.8854 64.544 52.3328 64.4282 52.7829C64.3956 52.9094 64.3437 52.978 64.2106 52.9873C63.5818 53.0299 62.9536 53.1011 62.3241 53.1131C61.8024 53.1224 61.2867 53.231 60.7636 53.1897C60.58 53.175 60.5088 53.2682 60.584 53.4347C60.7117 53.7203 60.7902 54.0172 60.8348 54.3261C60.8621 54.5159 60.9619 54.6064 61.1755 54.5905C62.1351 54.5179 63.096 54.4646 64.0549 54.3901C64.3803 54.3648 64.4275 54.3967 64.3483 54.7129C64.2459 55.1204 64.1321 55.5245 64.0369 55.9333C64.0063 56.0645 63.9504 56.1004 63.82 56.1264C63.2723 56.2356 62.716 56.1843 62.1644 56.2356C61.7152 56.2775 61.26 56.3194 60.8056 56.3201C60.7124 56.3201 60.6226 56.3328 60.574 56.4213C60.4429 56.661 60.3178 56.904 60.1641 57.1963C60.7729 57.157 61.3346 57.1397 61.8909 57.0791C62.3427 57.0298 62.7992 57.0971 63.2497 56.9939C63.4267 56.9532 63.446 57.1097 63.4127 57.2369C63.3096 57.6323 63.1925 58.0245 63.086 58.4199C63.0494 58.5564 62.9549 58.5797 62.8345 58.5857C61.8716 58.629 60.9087 58.6663 59.9471 58.7255C59.6437 58.7442 59.6158 58.625 59.6949 58.386C59.7814 58.1257 59.8853 57.8687 59.8826 57.5564C59.5099 57.7728 59.2218 58.0078 59.1593 58.4486C59.108 58.8087 59.0175 59.1629 58.941 59.5191C58.8771 59.814 58.9483 59.9325 59.2351 59.9132C59.9624 59.864 60.6878 59.7867 61.4151 59.7341C61.9454 59.6955 62.4771 59.6802 63.0081 59.6509C63.1931 59.6409 63.2524 59.7335 63.2151 59.8959C63.1219 60.3047 63.0168 60.7115 62.925 61.1209C62.8677 61.3739 62.6481 61.3633 62.4798 61.3739C62.0599 61.4006 61.64 61.4112 61.2195 61.4412C60.214 61.5131 59.2052 61.5264 58.199 61.595C57.9129 61.6143 57.6268 61.6509 57.3386 61.6516C56.6113 61.6516 56.0776 60.9585 56.2526 60.2401C56.3571 59.8107 56.4476 59.3766 56.5747 58.9539C56.6459 58.7169 56.5734 58.619 56.3511 58.5864C56.1495 58.5564 55.9046 58.3826 55.8208 58.7442C55.6185 59.615 55.4022 60.4838 55.2212 61.3593C55.1587 61.6629 55.0655 61.7714 54.7235 61.806C54.2051 61.8586 53.6807 61.7887 53.1677 61.9099C52.9195 61.9685 52.7331 61.8926 52.6719 61.6096C52.626 61.3986 52.5355 61.3506 52.3219 61.4831C51.6871 61.8766 50.9904 62.0317 50.2371 62.071C49.7087 62.0983 49.1731 62.0597 48.6487 62.1622C48.4857 62.1942 48.471 62.1189 48.5256 61.9991C48.6533 61.7188 48.5143 61.5843 48.2714 61.4718C48.0584 61.3733 47.9034 61.1895 47.7384 61.0244C47.6332 60.9192 47.566 60.8972 47.5321 61.089C47.4782 61.3932 47.3957 61.6922 47.3238 61.9931C47.2852 62.1549 47.2127 62.2334 47.0164 62.2654C46.4667 62.3559 45.9084 62.2794 45.3614 62.3812C45.1026 62.4292 45.034 62.312 45.0946 62.0543C45.3867 60.8074 45.6582 59.5564 45.955 58.3107C45.9956 58.1403 45.965 58.0411 45.8492 57.9333C45.6795 57.7741 45.5125 57.6117 45.3887 57.41C45.3508 57.3487 45.3208 57.2535 45.2237 57.2682C45.1192 57.2841 45.1405 57.3853 45.1239 57.4559C44.9043 58.38 44.6847 59.3034 44.4671 60.2281C44.31 60.8946 44.1537 61.561 44.0053 62.2288C43.978 62.3506 43.9421 62.4398 43.8043 62.4498C43.1535 62.4951 42.5021 62.541 41.8513 62.5836C41.7268 62.5916 41.5977 62.5969 41.5944 62.4119C41.5911 62.2201 41.444 62.2401 41.3289 62.2587C40.6954 62.3626 40.0453 62.296 39.4171 62.4485C39.3439 62.4664 39.2301 62.4298 39.2008 62.5024C39.0451 62.8872 38.7137 62.7853 38.4316 62.7807C37.9425 62.7727 37.4614 62.8905 36.9709 62.8566C36.7926 62.8439 36.6808 62.824 36.7733 62.6089C37.0401 61.9844 36.9603 61.4591 36.4286 60.9718C36.1824 60.7461 36.0307 60.6462 35.676 60.7281C34.5055 60.9984 33.3623 60.9212 32.3229 60.2315C32.0188 60.0297 32.0154 60.0304 31.9283 60.3946C31.867 60.6522 31.8045 60.9106 31.7612 61.1715C31.7286 61.3699 31.7652 61.4978 32.0381 61.4758C32.8652 61.4072 33.6943 61.3693 34.5235 61.32C34.9434 61.2954 35.3606 61.2348 35.7838 61.2468C36.0047 61.2534 36.0959 61.3147 36.0413 61.5404C35.9502 61.9159 35.861 62.292 35.7778 62.6695C35.7346 62.8652 35.6261 62.9172 35.4258 62.9265C34.2207 62.9811 33.0136 63.0284 31.8125 63.1342C31.2615 63.1828 30.7085 63.1988 30.1575 63.2407C29.5034 63.2907 28.9232 62.5144 29.0769 61.8673C29.1454 61.577 29.2293 61.2907 29.3011 61.0011C29.3697 60.7255 29.4315 60.4485 29.5021 60.1483C29.1328 60.1795 28.8167 60.3273 28.4727 60.3373C28.2863 60.3427 28.2444 60.5144 28.2457 60.6862C28.2497 61.1988 28.4021 61.6875 28.4826 62.1875C28.5279 62.4704 28.5931 62.7501 28.6417 63.0323C28.6823 63.2667 28.633 63.4012 28.3369 63.3919C27.6502 63.3712 26.9568 63.5417 26.2867 63.4797C25.7291 63.4285 25.2466 63.6555 24.7216 63.6502C24.0841 63.6442 23.4553 63.5776 22.8956 63.2427C22.6601 63.1016 22.4884 63.1369 22.3866 63.3706C22.2495 63.6855 21.9873 63.7654 21.6945 63.7787C21.3072 63.7966 20.9186 63.776 20.534 63.8479C20.4528 63.8632 20.3384 63.8892 20.2831 63.812C20.2159 63.7174 20.331 63.6528 20.373 63.5849C20.5553 63.294 20.7429 63.0057 20.9419 62.7261C21.0643 62.5537 20.9938 62.5137 20.8268 62.5217C20.4335 62.5403 20.0542 62.4764 19.6836 62.3473C19.4946 62.2814 19.4001 62.3486 19.3602 62.5523C19.2876 62.9205 19.1832 63.282 19.1046 63.6495C19.0674 63.8239 18.9988 63.9052 18.8025 63.9285C18.1863 63.9997 17.5668 64.0217 16.9486 64.0496C16.5447 64.0683 16.5467 64.0536 16.6419 63.6495C16.7729 63.0943 16.9 62.5377 16.9679 61.9505C16.6152 62.4651 16.218 62.9551 15.9232 63.501C15.6284 64.0456 15.2385 64.26 14.6336 64.1934C14.1931 64.1455 13.7539 64.286 13.3067 64.2594C13.1217 64.2487 13.0525 64.2121 13.0152 64.0057C12.7271 62.3886 12.4163 60.7754 12.1149 59.1603C12.0257 58.6836 11.9519 58.2036 11.8547 57.7282C11.8234 57.5731 11.8687 57.5365 12.0111 57.5178C12.2639 57.4845 12.5148 57.4339 12.771 57.4559C12.954 57.4712 13.0272 57.4033 13.0292 57.2109C13.0325 56.902 12.9926 56.5931 13.0671 56.2835C13.1164 56.0771 12.9327 56.1317 12.8242 56.123C12.2573 56.0784 11.6957 56.1816 11.13 56.1949C10.8572 56.2016 10.7654 56.1803 10.8705 55.8621C11.6677 53.4547 12.4436 51.0406 13.2248 48.6279C13.2588 48.5227 13.2781 48.4135 13.31 48.3076C13.3606 48.1425 13.4584 48.064 13.6487 48.0553C14.8871 47.9974 16.1255 47.9335 17.3632 47.8562C18.179 47.8056 18.9942 47.7317 19.8087 47.6652C20.0835 47.6425 20.3457 47.8449 20.4315 48.1605C20.5859 48.7271 20.5007 49.2796 20.3217 49.8236C20.0941 50.5173 19.8978 51.225 19.6204 51.8988C19.3921 52.4533 19.1452 53.0299 18.4911 53.2576C18.2981 53.3248 18.3234 53.5152 18.5517 53.6451C18.901 53.8441 19.2238 54.0738 19.5052 54.3614C19.747 54.6082 19.9728 54.5867 20.1826 54.2968C21.7937 52.0759 23.414 49.8615 25.0077 47.6279C25.2353 47.3083 25.5374 47.3882 25.8056 47.3429C26.1949 47.2777 26.5988 47.311 26.998 47.271C27.6595 47.2045 28.0488 47.5893 28.1127 48.295C28.2111 49.3828 28.307 50.4707 28.3968 51.5592C28.4274 51.9294 28.4134 52.3075 28.5053 52.6784C28.5938 53.0346 28.8992 52.8934 29.0995 52.9773C29.2951 53.0599 29.3291 52.8595 29.3697 52.7283C29.9127 50.9733 30.457 49.2191 30.99 47.4614C31.0792 47.1672 31.1723 46.9714 31.5483 46.9601C32.2982 46.9375 33.0455 46.8396 33.8301 46.8616C33.6804 47.3676 33.5433 47.8443 33.3969 48.3183C33.0841 49.3336 32.7714 50.3489 32.448 51.3608C32.3781 51.5799 32.3741 51.6491 32.6469 51.5978C33.2372 51.4873 33.2372 51.5026 33.3902 50.9108C33.4568 50.6538 33.5313 50.3988 33.6138 50.1465C33.7808 49.6312 33.8121 49.6079 34.3564 49.5926C34.7218 49.5826 35.0851 49.5806 35.4511 49.538C35.6674 49.5133 35.7319 49.4195 35.7845 49.2517C36.0274 48.4694 36.2789 47.6898 36.5138 46.9055C36.557 46.7611 36.5936 46.6665 36.7647 46.6572C37.494 46.6179 38.2226 46.5733 38.9513 46.5234C39.1982 46.5067 39.2913 46.5493 39.2008 46.835C38.5221 48.9647 37.86 51.1005 37.1899 53.233C37.146 53.3721 37.114 53.5099 37.1306 53.6764C37.1273 53.655 37.0994 53.6704 37.0994 53.6704L37.112 53.683C37.112 53.683 37.1273 53.655 37.1306 53.6764L37.1247 53.677ZM15.4115 53.4114C14.8139 53.5931 15.0594 53.2409 15.1027 53.0845C15.2318 52.6158 15.3995 52.1571 15.5339 51.689C15.5885 51.5 15.6956 51.458 15.8733 51.4534C16.3045 51.442 16.735 51.4048 17.1669 51.3921C17.3273 51.3875 17.4164 51.3162 17.4637 51.1771C17.5948 50.7889 17.7192 50.3981 17.8543 50.0113C17.9122 49.8449 17.8696 49.7843 17.6919 49.8029C17.0651 49.8688 16.4369 49.9308 15.8054 49.9208C15.6031 49.9174 15.4953 49.9993 15.4381 50.1811C15.1386 51.1311 14.8259 52.0772 14.5424 53.0312C14.4386 53.3794 14.2789 53.717 14.235 54.1431C14.6282 53.8894 14.939 53.6204 15.4121 53.412L15.4115 53.4114ZM44.6075 54.1903C44.4139 54.205 44.2222 54.2569 44.0199 54.2602C43.5228 54.2676 43.0258 54.3002 42.5287 54.3228C42.4002 54.3288 42.2778 54.3415 42.4162 54.5046C42.6045 54.7269 42.7137 54.9959 42.8627 55.2402C42.9805 55.4333 43.1169 55.685 43.3824 55.641C43.7371 55.5818 44.0891 55.5911 44.4418 55.5898C44.6587 55.5891 44.7446 55.4992 44.7319 55.2882C44.714 54.9999 44.7293 54.711 44.8065 54.4333C44.861 54.2383 44.8211 54.1564 44.6075 54.1897V54.1903ZM25.206 50.3735C25.0989 50.3968 25.0503 50.4747 24.9997 50.5439C24.4102 51.3588 23.8199 52.1737 23.2383 52.9939C23.1758 53.0825 23.0041 53.219 23.1166 53.2889C23.2443 53.3681 23.4599 53.3841 23.607 53.2316C23.6296 53.2083 23.6409 53.1744 23.6602 53.1471C23.8126 52.9294 23.9696 52.7157 24.1167 52.4946C24.3583 52.1338 24.6098 51.8135 25.1275 51.9161C25.4176 51.9733 25.3983 51.737 25.3611 51.5705C25.2732 51.1804 25.3345 50.7749 25.2054 50.3722L25.206 50.3735ZM50.6057 51.4906C50.9657 51.5739 51.2 51.5146 51.3544 51.2144C51.4389 51.0492 51.5846 50.9161 51.6731 50.7523C51.8667 50.3961 52.1469 50.219 52.5588 50.2543C52.6513 50.2623 52.7598 50.281 52.8043 50.1458C52.8629 49.9674 52.7305 48.9108 52.6087 48.7137C51.9439 49.6352 51.2832 50.5513 50.6057 51.49V51.4906ZM15.1313 60.3713C14.9723 60.362 15.0175 60.4898 15.0308 60.5524C15.0608 60.6922 15.0275 60.9239 15.1779 60.9385C15.2983 60.9505 15.4075 60.7441 15.4148 60.589C15.4228 60.4119 15.2491 60.4159 15.1306 60.3713H15.1313ZM34.4809 51.6478C34.6772 51.735 34.7916 51.8348 34.94 51.753C34.9853 51.7283 34.9813 51.6584 34.952 51.6398C34.8256 51.5599 34.6925 51.5792 34.4809 51.6478Z" fill="black"/>
<path d="M11.5791 58.7129C11.7973 59.8487 12.0396 60.9332 12.1979 62.0297C12.2485 62.3799 12.0788 62.7621 12.007 63.1289C11.9457 63.4418 11.8739 63.7534 11.8193 64.0676C11.7794 64.2987 11.6816 64.4232 11.422 64.3865C11.078 64.3379 10.7393 64.4272 10.3986 64.4551C10.1324 64.4771 10.1105 64.3746 10.1657 64.1555C10.4605 62.9798 10.748 61.8014 11.0367 60.6236C11.1652 60.099 11.2923 59.5744 11.4194 59.0498C11.4447 58.9452 11.4606 58.8367 11.5791 58.7129Z" fill="black"/>
<path d="M15.4115 53.4112C14.9377 53.6203 14.627 53.8886 14.2344 54.1422C14.2776 53.7161 14.438 53.3786 14.5418 53.0304C14.8259 52.0757 15.138 51.1296 15.4375 50.1803C15.4947 49.9985 15.6025 49.9166 15.8048 49.9199C16.4363 49.9299 17.0638 49.8687 17.6913 49.8021C17.8697 49.7835 17.9122 49.8434 17.8537 50.0105C17.7193 50.3973 17.5948 50.7881 17.4631 51.1762C17.4158 51.3154 17.3267 51.3866 17.1663 51.3913C16.7351 51.4039 16.3045 51.4412 15.8727 51.4525C15.6943 51.4572 15.5879 51.4991 15.5333 51.6882C15.3989 52.1562 15.2319 52.6143 15.1021 53.0837C15.0589 53.2401 14.8133 53.5923 15.4109 53.4105L15.4115 53.4112Z" fill="#211112"/>
<path d="M44.6072 54.1909C44.8208 54.1576 44.8608 54.2388 44.8062 54.4345C44.729 54.7121 44.7137 55.0011 44.7317 55.2894C44.745 55.4997 44.6585 55.5896 44.4415 55.591C44.0882 55.5923 43.7369 55.583 43.3822 55.6422C43.1173 55.6862 42.9803 55.4345 42.8625 55.2414C42.7134 54.9964 42.6043 54.7281 42.416 54.5058C42.2776 54.3426 42.4007 54.3293 42.5284 54.324C43.0255 54.302 43.5226 54.2687 44.0197 54.2614C44.222 54.2588 44.4129 54.2062 44.6072 54.1915V54.1909Z" fill="#211112"/>
<path d="M25.2058 50.373C25.3349 50.7758 25.2737 51.1813 25.3615 51.5714C25.3988 51.7379 25.4181 51.9742 25.1279 51.917C24.6102 51.8144 24.3587 52.1347 24.1171 52.4955C23.9694 52.7159 23.8124 52.9302 23.6607 53.148C23.6414 53.1753 23.63 53.2085 23.6074 53.2325C23.4604 53.385 23.2448 53.369 23.117 53.2898C23.0045 53.2205 23.1755 53.0834 23.2388 52.9948C23.821 52.1746 24.4106 51.3597 25.0002 50.5448C25.0501 50.4756 25.0993 50.3977 25.2065 50.3744L25.2058 50.373Z" fill="#211112"/>
<path d="M50.606 51.4911C51.2834 50.5517 51.9442 49.6356 52.6089 48.7148C52.7307 48.9119 52.8631 49.9691 52.8046 50.1469C52.76 50.2821 52.6515 50.2627 52.559 50.2554C52.1471 50.2201 51.8676 50.3972 51.6733 50.7534C51.5842 50.9165 51.4391 51.0503 51.3546 51.2155C51.2002 51.5157 50.966 51.575 50.606 51.4917V51.4911Z" fill="#211112"/>
<path d="M15.1313 60.3716C15.2498 60.4162 15.4235 60.4122 15.4155 60.5893C15.4082 60.7444 15.299 60.9508 15.1786 60.9388C15.0282 60.9242 15.0615 60.6925 15.0315 60.5527C15.0182 60.4901 14.9723 60.3623 15.132 60.3716H15.1313Z" fill="#211112"/>
<path d="M34.4814 51.6463C34.6931 51.5771 34.8268 51.5584 34.9526 51.6383C34.9819 51.657 34.9852 51.7269 34.9406 51.7515C34.7922 51.8334 34.6777 51.7335 34.4814 51.6463Z" fill="#211112"/>
<path d="M37.1227 53.6562L37.1071 53.6849L37.0942 53.6719L37.1227 53.6562Z" fill="#211112"/>
<path d="M50.6888 52.2034C51.1007 51.6261 51.5119 51.0383 51.9358 50.4597C52.0835 50.258 52.3211 50.3206 52.5254 50.3232C52.7936 50.3272 52.9113 50.2593 52.8488 49.9537C52.7849 49.6415 52.7856 49.3166 52.7556 48.997C52.7443 48.8799 52.7942 48.7134 52.6651 48.6662C52.5207 48.6136 52.4795 48.7927 52.4156 48.8812C51.2963 50.4251 50.1757 51.9684 49.0744 53.5249C48.8681 53.8165 48.6585 53.9617 48.2892 53.9403C47.9053 53.9184 47.5166 53.9796 47.1294 53.9956C47.0262 53.9996 46.8778 54.0629 46.8273 53.9483C46.782 53.8451 46.9118 53.7566 46.9743 53.67C48.244 51.9064 49.5163 50.1448 50.7873 48.3819C51.3516 47.5996 51.9192 46.8193 52.4768 46.0324C52.5959 45.864 52.727 45.7881 52.9406 45.7794C53.471 45.7588 54 45.7095 54.529 45.6629C55.0414 45.6176 55.4167 45.9578 55.4899 46.6203C55.601 47.6316 55.6782 48.6462 55.7627 49.6601C55.8586 50.8073 55.9457 51.9544 56.0376 53.1015C56.0429 53.1641 56.0309 53.2546 56.1128 53.2659C56.2299 53.2819 56.2106 53.1661 56.2305 53.1015C56.4654 52.3172 56.7117 51.5363 56.9246 50.746C57.0969 50.1055 57.4776 49.6888 58.0884 49.4391C59.3594 48.9205 60.6224 48.3819 61.8854 47.8446C62.2734 47.6795 62.6547 47.4971 62.9601 47.1942C63.032 47.1229 63.1191 47.035 63.0939 46.9392C63.0599 46.8087 62.9235 46.8646 62.835 46.8699C61.3877 46.9511 59.9384 47.0137 58.4937 47.1316C57.5222 47.2108 57.5075 47.2268 57.761 46.306C57.99 45.4751 57.9906 45.4978 58.8497 45.4512C60.5293 45.36 62.2068 45.2395 63.8857 45.1349C64.6037 45.0903 65.3224 45.0557 66.0411 45.0144C66.2287 45.0038 66.1855 45.1063 66.1728 45.2281C65.9799 47.1036 64.9804 48.3479 63.2369 49.0257C62.5455 49.2946 61.8608 49.5796 61.1781 49.8685C60.5486 50.1348 60.1433 50.6055 59.9443 51.2613C59.8738 51.4943 59.9277 51.5989 60.1819 51.5822C61.0876 51.5236 61.9932 51.4684 62.8995 51.4138C63.4519 51.3805 64.0042 51.3539 64.5565 51.3146C64.7561 51.3006 64.7847 51.3911 64.7408 51.5522C64.6297 51.9577 64.5159 52.3625 64.4088 52.7686C64.3668 52.9284 64.2757 52.9976 64.1086 53.0236C63.6475 53.0955 63.1804 53.0828 62.7179 53.1148C61.029 53.2326 59.3368 53.3079 57.6459 53.4011C56.2445 53.4783 54.8431 53.5542 53.4417 53.6414C53.276 53.6514 53.2201 53.5968 53.2028 53.4517C53.1649 53.1334 53.115 52.8165 53.087 52.4976C53.0684 52.2819 52.9872 52.1807 52.755 52.1927C52.1354 52.2247 51.5153 52.2426 50.8957 52.2626C50.8345 52.2646 50.7626 52.2912 50.6881 52.202L50.6888 52.2034Z" fill="#F38811"/>
<path d="M28.6986 54.7492C28.8936 54.63 28.8936 54.4849 28.9309 54.3651C29.6449 52.0728 30.3609 49.7806 31.0603 47.4837C31.1554 47.1721 31.2872 47.0443 31.6299 47.0423C32.2481 47.0383 32.8663 46.9717 33.4845 46.9251C33.6994 46.9092 33.7879 46.9444 33.7087 47.1961C32.9302 49.6887 32.1609 52.184 31.395 54.6806C31.3371 54.8704 31.232 54.941 31.0456 54.9663C30.6277 55.0235 30.2052 55.0208 29.7873 55.0422C28.6933 55.0981 27.6067 55.2579 26.5094 55.2665C25.8785 55.2718 25.8792 55.2832 25.7967 54.6434C25.7894 54.5888 25.7734 54.5348 25.7634 54.4809C25.6509 53.8524 25.6509 53.8464 24.9942 53.8691C24.4532 53.8877 23.9142 53.9656 23.3079 53.9123C23.7578 53.2845 24.1777 52.6794 24.6208 52.0915C24.7453 51.9264 24.9729 51.9823 25.1572 51.9883C25.4373 51.9983 25.5678 51.931 25.4979 51.6048C25.4313 51.2939 25.436 50.9677 25.4061 50.6481C25.3954 50.5309 25.4413 50.3598 25.3049 50.3252C25.1738 50.2919 25.1239 50.4644 25.0574 50.5569C23.9521 52.0835 22.8421 53.6074 21.7561 55.148C21.5299 55.4696 21.301 55.6347 20.8931 55.6081C20.4985 55.5828 20.0985 55.6447 19.6999 55.6653C19.6254 55.6693 19.5263 55.7033 19.4817 55.6327C19.4218 55.5368 19.5283 55.4716 19.5755 55.4057C20.5331 54.0735 21.4946 52.7439 22.4548 51.4131C23.3439 50.1814 24.2336 48.9504 25.1173 47.7147C25.243 47.539 25.3761 47.4511 25.6057 47.4444C26.1247 47.4285 26.6431 47.3792 27.1608 47.3299C27.6825 47.28 28.0525 47.6002 28.139 48.268C28.2335 49.0023 28.2847 49.7427 28.3473 50.481C28.4664 51.8891 28.5802 53.2978 28.7 54.7492H28.6986Z" fill="#F38811"/>
<path d="M10.9336 56.1632C11.0161 55.9069 11.0866 55.6885 11.1578 55.4695C11.9184 53.122 12.679 50.7752 13.439 48.4277C13.4955 48.2519 13.5528 48.1247 13.7903 48.1128C15.6908 48.0129 17.59 47.8917 19.4898 47.7872C19.7613 47.7726 20.076 47.5901 20.2976 47.8891C20.5551 48.2359 20.6363 48.656 20.5405 49.0601C20.261 50.2445 19.937 51.4183 19.3613 52.5022C19.185 52.8344 18.9441 53.0987 18.5642 53.2025C18.3965 53.2485 18.3812 53.3557 18.4151 53.5101C18.5528 54.1399 18.7784 54.7411 19.0013 55.3423C19.0879 55.5767 19.0652 55.6932 18.7977 55.7078C18.0578 55.7491 17.3178 55.7937 16.5778 55.837C16.3968 55.8476 16.4022 55.6892 16.3689 55.586C16.1706 54.9642 15.9763 54.341 15.7913 53.7152C15.7287 53.5035 15.6535 53.343 15.388 53.3903C15.211 53.4216 15.1771 53.3284 15.2257 53.1759C15.376 52.7012 15.5298 52.2279 15.6702 51.7505C15.7261 51.5608 15.8558 51.5268 16.0229 51.5182C16.4208 51.4975 16.8174 51.4616 17.2153 51.4496C17.4349 51.4429 17.5593 51.3584 17.6219 51.142C17.7257 50.7812 17.8415 50.423 17.9719 50.0701C18.0471 49.8657 18.0172 49.7818 17.7849 49.7945C17.1548 49.8284 16.5246 49.8551 15.8944 49.883C15.6629 49.893 15.5604 50.0122 15.4905 50.2366C14.9282 52.0308 14.344 53.819 13.783 55.6139C13.6985 55.8849 13.5767 56.0174 13.2859 56.0294C12.5233 56.0607 11.7621 56.1139 10.9349 56.1625L10.9336 56.1632Z" fill="#F38811"/>
<path d="M38.1084 54.5286C37.6963 54.5357 37.5526 54.3447 37.6772 53.9554C37.7517 53.7237 37.8376 53.4941 37.8935 53.2577C37.9447 53.042 38.0685 52.9907 38.2748 52.9801C39.9111 52.8969 41.5461 52.8023 43.1817 52.7104C43.6229 52.6858 43.8764 52.3982 44.0767 52.0513C44.2384 51.7711 44.3116 51.4555 44.4015 51.1472C44.4627 50.9368 44.3995 50.855 44.1859 50.8683C43.6888 50.8996 43.191 50.9275 42.6939 50.9568C41.7331 51.0141 40.7722 51.0733 39.8113 51.1286C39.597 51.1406 39.3927 51.082 39.2011 50.9928C38.8464 50.827 38.702 50.5161 38.8171 50.1419C39.0587 49.3596 39.2995 48.5767 39.5611 47.8011C39.8472 46.9542 40.522 46.5002 41.4196 46.4509C43.0992 46.359 44.7774 46.2385 46.4557 46.134C46.986 46.1014 47.5177 46.0848 48.048 46.0561C48.2537 46.0448 48.3395 46.0974 48.257 46.3231C48.1545 46.6034 48.0381 46.887 47.9981 47.1793C47.9409 47.6007 47.6914 47.7132 47.3234 47.7325C46.0857 47.7964 44.848 47.867 43.6102 47.9389C43.3341 47.9549 43.0566 47.9715 42.7838 48.0115C42.4497 48.0607 42.2208 48.2638 42.1004 48.576C42.0165 48.7924 41.9546 49.0174 41.8808 49.2378C41.8142 49.4349 41.8641 49.5314 42.0904 49.5161C42.9408 49.4588 43.7912 49.4076 44.6423 49.3557C45.2279 49.3204 45.8128 49.2691 46.3984 49.2598C46.9594 49.2511 47.2355 49.6226 47.0758 50.1652C46.8323 50.9934 46.5721 51.817 46.2993 52.6352C46.1649 53.0387 45.9226 53.3869 45.6298 53.6971C45.3597 53.9841 45.0496 54.1212 44.637 54.1412C42.9794 54.2231 41.3238 54.3482 39.6669 54.4521C39.1478 54.4847 38.6275 54.502 38.1078 54.526L38.1084 54.5286Z" fill="#F38811"/>
<path d="M34.6835 51.5966C34.2091 51.6232 33.8438 51.6399 33.4798 51.6665C33.2928 51.6805 33.2063 51.6385 33.2748 51.4288C33.4352 50.9342 33.5876 50.4368 33.7393 49.9395C33.7879 49.7791 33.881 49.7171 34.0534 49.7131C34.4846 49.7025 34.9151 49.6599 35.3463 49.6492C35.6032 49.6432 35.7436 49.5514 35.8188 49.2904C36.037 48.5361 36.2879 47.7911 36.5128 47.0388C36.5787 46.8191 36.6705 46.7212 36.9234 46.7145C37.5755 46.6972 38.227 46.644 38.8771 46.5874C39.1633 46.5627 39.1912 46.6726 39.1174 46.9089C38.3421 49.3902 37.5689 51.8722 36.8016 54.3562C36.7344 54.5739 36.608 54.6491 36.3911 54.6591C35.7057 54.6904 35.0209 54.729 34.3369 54.779C34.0361 54.8009 34.1658 54.6132 34.1984 54.5047C34.4387 53.6991 34.6909 52.8968 34.9377 52.0933C35.0928 51.5879 35.0908 51.5873 34.6842 51.5959L34.6835 51.5966Z" fill="#F38811"/>
<path d="M20.7369 57.0648C20.488 58.124 20.2478 59.1533 20.0029 60.1812C19.7221 61.3616 19.4406 62.5413 19.1472 63.7184C19.1212 63.8216 19.0141 63.9754 18.9336 63.9827C18.2062 64.0453 17.4769 64.0813 16.7483 64.1225C16.7176 64.1245 16.685 64.1072 16.6325 64.0932C16.7842 63.4042 16.9359 62.7171 17.087 62.0307C17.071 62.0214 17.0544 62.0121 17.0384 62.0027C16.8747 62.2384 16.7097 62.4734 16.5473 62.7104C16.2605 63.1305 15.9863 63.5606 15.6822 63.9674C15.5984 64.0793 15.4327 64.1798 15.2949 64.1931C14.6681 64.255 14.0373 64.2803 13.4084 64.3283C13.2035 64.3436 13.1283 64.2783 13.0897 64.0639C12.7091 61.9348 12.3131 59.809 11.9218 57.6819C11.9179 57.662 11.9272 57.6393 11.9365 57.5734C12.208 57.5568 12.4895 57.5381 12.7703 57.5215C13.1236 57.5002 13.4776 57.4802 13.831 57.4596C14.3214 57.4309 14.5363 57.5934 14.6308 58.0867C14.8185 59.0694 14.9995 60.0534 15.1958 61.1053C15.2983 60.9735 15.3661 60.8942 15.4254 60.809C16.1986 59.6892 16.9738 58.5707 17.7378 57.4442C17.8562 57.2692 17.9826 57.2019 18.1936 57.1933C18.9455 57.1633 19.6961 57.1087 20.4474 57.0648C20.5326 57.0601 20.6184 57.0641 20.7356 57.0641L20.7369 57.0648Z" fill="white"/>
<path d="M28.6629 63.4146C27.8291 63.4612 27.026 63.5118 26.2221 63.5405C26.1536 63.5431 26.0404 63.4046 26.0152 63.3128C25.9267 62.9965 25.8674 62.6723 25.8009 62.3667H23.6302C23.9962 61.8108 24.3363 61.2742 24.7043 60.7582C24.7595 60.681 24.9458 60.6903 25.0736 60.6724C25.192 60.6557 25.3131 60.655 25.4808 60.6444C25.393 60.187 25.3098 59.7536 25.2106 59.235C24.7708 59.8954 24.3802 60.4819 23.9902 61.0685C23.4333 61.9067 22.8823 62.7489 22.3113 63.5777C22.2341 63.6903 22.0605 63.7841 21.9227 63.7988C21.3864 63.856 20.846 63.878 20.2432 63.9166C20.3237 63.7821 20.3743 63.6903 20.4321 63.603C21.8735 61.4267 23.3188 59.2529 24.7528 57.0719C24.8899 56.8635 25.039 56.771 25.2858 56.765C25.7503 56.7537 26.2155 56.7297 26.6773 56.6818C27.0406 56.6438 27.3101 56.7869 27.4219 57.1032C27.5962 57.5985 27.7393 58.1098 27.8378 58.6258C28.1239 60.1211 28.3815 61.6217 28.6476 63.121C28.6609 63.1963 28.6563 63.2748 28.6636 63.416L28.6629 63.4146Z" fill="white"/>
<path d="M64.2638 54.5014C64.144 55.018 64.0395 55.5147 63.9051 56.0027C63.8812 56.0906 63.7368 56.1998 63.6423 56.2058C62.3946 56.2883 61.1469 56.3622 59.8979 56.4175C59.6304 56.4295 59.5192 56.5067 59.462 56.7783C59.273 57.6738 59.0474 58.5612 58.8412 59.4534C58.7294 59.936 58.7819 59.988 59.287 59.954C60.4355 59.8768 61.5841 59.8029 62.7326 59.729C62.8418 59.7223 62.9516 59.7283 63.1292 59.7283C63.0035 60.2696 62.8877 60.7896 62.7539 61.3042C62.7413 61.3521 62.6175 61.3947 62.543 61.4001C61.5162 61.47 60.4894 61.5339 59.4627 61.5971C58.7779 61.6391 58.0925 61.6684 57.4085 61.7216C56.578 61.7862 55.9638 61.1284 56.1568 60.3182C56.5727 58.5686 57.0119 56.8243 57.4537 55.0806C57.475 54.9967 57.6068 54.8869 57.6926 54.8809C59.8353 54.7384 61.9787 54.6079 64.1221 54.4768C64.1533 54.4748 64.1859 54.4874 64.2645 54.5014H64.2638Z" fill="white"/>
<path d="M37.2223 56.0566C37.0879 56.6245 36.9754 57.1398 36.835 57.6478C36.815 57.7204 36.6627 57.7963 36.5668 57.8023C35.3078 57.8822 34.0488 57.9561 32.7892 58.016C32.5576 58.0266 32.4717 58.1059 32.4225 58.3329C32.2235 59.249 31.9966 60.1584 31.787 61.0725C31.6825 61.5279 31.7378 61.5838 32.1903 61.5532C33.3608 61.4746 34.5319 61.3987 35.7024 61.3242C35.8102 61.3175 35.9187 61.3235 36.0757 61.3235C35.946 61.8981 35.8235 62.4393 35.7004 62.9839C34.5546 63.0552 33.4406 63.1251 32.326 63.1943C31.6745 63.2349 31.0224 63.2635 30.3716 63.3161C29.5232 63.3841 28.9077 62.7236 29.1093 61.8961C29.5365 60.1384 29.9903 58.3868 30.4342 56.6332C30.4475 56.5813 30.4661 56.53 30.4887 56.4568C32.7199 56.3243 34.9478 56.1925 37.223 56.0573L37.2223 56.0566Z" fill="white"/>
<path d="M50.0138 55.3295C50.6586 55.2936 51.3088 55.215 51.9542 55.239C52.3209 55.2523 52.5152 55.6032 52.6516 55.9274C52.9464 56.6298 53.2312 57.3362 53.5213 58.0405C53.5712 58.1617 53.6265 58.2815 53.7183 58.4913C53.8627 57.9746 53.9871 57.5392 54.1063 57.1025C54.2686 56.5066 54.429 55.9108 54.5847 55.3129C54.6306 55.1365 54.6998 55.0333 54.9128 55.0286C55.4624 55.0153 56.0121 54.974 56.6123 54.9414C56.4812 55.5113 56.3628 56.0353 56.2403 56.5572C55.8457 58.2423 55.4524 59.928 55.0459 61.6097C55.0206 61.7142 54.8901 61.8614 54.797 61.8707C54.1701 61.9319 53.54 61.9692 52.9105 61.9912C52.8133 61.9945 52.6576 61.902 52.6217 61.8148C51.7446 59.693 50.8802 57.5659 50.0152 55.4387C50.0078 55.4208 50.0145 55.3968 50.0145 55.3282L50.0138 55.3295Z" fill="white"/>
<path d="M41.5238 62.6236C41.7348 61.6949 41.9324 60.8267 42.14 59.9153C41.5757 59.9426 41.0407 59.9686 40.4604 59.9972C40.5922 59.428 40.7093 58.8927 40.8484 58.3628C40.8637 58.3055 41.0034 58.2542 41.09 58.2462C41.4979 58.2103 41.9071 58.1843 42.3164 58.169C42.5027 58.1617 42.5805 58.0924 42.6211 57.9034C42.7595 57.2562 42.9152 56.6125 43.0816 55.972C43.1082 55.8688 43.2174 55.7163 43.2992 55.709C44.0245 55.6451 44.7525 55.6085 45.5304 55.5605C45.3667 56.2769 45.2123 56.9593 45.054 57.6411C44.7066 59.1344 44.3526 60.6264 44.0139 62.121C43.9553 62.3786 43.8608 62.5165 43.5714 62.5238C42.9099 62.5398 42.2491 62.5864 41.5251 62.623L41.5238 62.6236Z" fill="white"/>
<path d="M38.3149 55.9796C39.1214 55.9336 39.8906 55.8897 40.7038 55.8438C40.5294 56.6067 40.3677 57.3244 40.2014 58.0414C39.8567 59.5254 39.504 61.0068 39.1706 62.4934C39.12 62.7204 39.0402 62.7977 38.8046 62.8043C38.1205 62.8243 37.4371 62.8756 36.7012 62.9182C37.2408 60.5966 37.7745 58.3038 38.3149 55.9802V55.9796Z" fill="white"/>
<path d="M48.8534 55.4043C48.6298 56.3537 48.4155 57.2611 48.2013 58.1692C47.8918 59.4781 47.5857 60.787 47.265 62.0932C47.2417 62.1871 47.1153 62.3156 47.0281 62.3229C46.3793 62.3802 45.7285 62.4108 45.0371 62.4521C45.0504 62.3396 45.0531 62.2377 45.075 62.1405C45.5575 60.0127 46.0406 57.8849 46.5317 55.7585C46.5516 55.6706 46.6401 55.5361 46.7047 55.5308C47.4081 55.4769 48.1128 55.4449 48.8534 55.4043Z" fill="white"/>
<path d="M49.7445 56.1113C50.0858 56.9063 50.3913 57.6133 50.6887 58.323C50.7147 58.3849 50.6967 58.4728 50.6807 58.5447C50.4299 59.6858 50.179 60.8263 49.9175 61.9654C49.8975 62.0519 49.803 62.1798 49.7338 62.1858C49.2966 62.225 48.8568 62.2364 48.3896 62.2577C48.8395 60.2178 49.282 58.2105 49.7445 56.1113Z" fill="white"/>
<path d="M11.6575 58.7468C11.7247 59.0996 11.79 59.4525 11.8585 59.8047C11.9823 60.4438 12.126 61.0796 12.2238 61.7227C12.2671 62.0077 12.2524 62.3119 12.2072 62.5989C12.1267 63.1102 11.9982 63.6135 11.9004 64.1221C11.8625 64.3185 11.7893 64.4337 11.5644 64.4391C11.1252 64.449 10.686 64.4817 10.1909 64.5076C10.664 62.5683 11.1292 60.6602 11.595 58.7514C11.6163 58.7494 11.6369 58.7481 11.6582 58.7461L11.6575 58.7468Z" fill="white"/>
<path d="M63.3439 57.0742C63.2062 57.5642 63.0817 58.0203 62.9453 58.473C62.9273 58.5322 62.8495 58.6115 62.7949 58.6155C61.7056 58.6934 60.6163 58.7613 59.4844 58.8338C59.6241 58.3318 59.7432 57.8858 59.8763 57.4437C59.8963 57.3778 59.9768 57.2853 60.0347 57.2819C61.126 57.2067 62.2187 57.1428 63.3439 57.0749V57.0742Z" fill="white"/>
<path d="M17.0577 23.8301C17.0384 24.111 17.0151 24.4259 16.9951 24.7309C16.9951 24.7235 16.9951 24.7162 16.9958 24.7089C17.0104 24.4166 17.0297 24.123 17.0577 23.8301Z" fill="#EA8523"/>
</g>
<path d="M49.1573 20.5762L40.5465 23.3843L33.0607 26.6907L30.9635 27.2449C30.4093 27.7712 29.8435 28.2852 29.2667 28.7865C28.6062 29.3613 27.985 29.8822 27.5127 30.2586C26.9867 30.6778 26.2047 31.4538 25.805 31.9514C25.2103 32.6916 24.7453 33.481 24.5454 34.088C24.1856 35.1802 24.3609 36.2864 25.0546 37.3073C25.9409 38.6115 27.7051 39.9365 29.757 40.8385C30.8036 41.2986 32.5698 41.8917 33.8941 42.2262C36.1012 42.7835 40.3667 43.389 42.7159 43.479C43.1923 43.4972 43.8266 43.4955 43.8558 43.4763C43.9073 43.4423 44.273 42.7498 44.6973 41.883C46.141 38.9337 47.1856 36.1689 47.7478 33.8075C48.0881 32.3777 48.3535 30.4711 48.5253 28.2105C48.5735 27.5772 48.591 25.4653 48.554 24.7474C48.4937 23.5793 48.3908 22.6272 48.2258 21.6928C48.2015 21.556 48.1926 21.4355 48.2053 21.4246C48.2293 21.404 48.3106 21.3779 49.3683 21.0705L49.1573 20.5762ZM47.1894 21.731C47.2677 21.731 47.4757 23.7265 47.5299 24.9925C47.5414 25.2615 47.539 25.4338 47.523 25.4338C47.4716 25.4338 46.4203 24.8164 45.6751 24.3484C45.0243 23.9397 43.7893 23.119 43.5929 22.9648C43.5309 22.9162 43.5375 22.9137 44.0695 22.7306C44.9748 22.4188 47.121 21.731 47.1894 21.731V21.731ZM42.803 23.1704C42.8587 23.1703 43.0101 23.2539 43.3682 23.4782C44.7112 24.3196 46.5299 25.3318 47.3092 25.6721C47.5509 25.7776 47.5785 25.7367 47.0219 26.1146C45.8356 26.9203 44.3606 27.7124 42.5498 28.5169C42.2341 28.657 41.9668 28.7716 41.956 28.7716C41.9452 28.7716 41.9805 28.6114 42.0336 28.4147C42.4723 26.792 42.7198 25.1541 42.7268 23.8404C42.7302 23.1908 42.7304 23.1873 42.7921 23.1718C42.7957 23.171 42.7994 23.1706 42.803 23.1705V23.1704ZM41.9002 23.515C41.939 23.554 41.9109 25.0098 41.8634 25.4065C41.7495 26.3582 41.5633 27.2383 41.2655 28.2391C41.1944 28.4782 41.1277 28.6843 41.1171 28.6966C41.0912 28.7266 40.2011 27.8592 39.9051 27.516C39.3995 26.9294 38.9995 26.3468 38.7081 25.7728C38.56 25.4811 38.3238 24.905 38.3459 24.889C38.4459 24.8164 41.8757 23.4904 41.9002 23.515ZM37.6473 25.1913C37.6553 25.1921 37.6615 25.1943 37.665 25.1982C37.6778 25.2123 37.7231 25.318 37.7658 25.4337C37.9731 25.9969 38.4393 26.8337 38.8443 27.3689C39.2863 27.9532 39.8627 28.5758 40.345 28.9894C40.4998 29.1222 40.6443 29.2461 40.665 29.2645C40.7063 29.3011 40.7202 29.2949 39.6586 29.6975C38.4283 30.1642 37.0884 30.6315 35.5501 31.1288C34.9639 31.3183 34.4677 31.4784 34.4484 31.4856C34.3898 31.5073 34.4077 31.4713 34.5792 31.2037C35.3435 30.0103 36.5014 27.6759 37.1488 26.0247C37.2611 25.7385 37.368 25.4515 37.3871 25.3874C37.4153 25.2932 37.4431 25.2612 37.5315 25.2213C37.5805 25.1992 37.6233 25.1889 37.6473 25.1914V25.1913ZM36.3441 25.7293C36.3613 25.7445 36.0313 26.4414 35.7067 27.0748C35.077 28.3031 34.3828 29.5119 33.4611 30.9872C33.302 31.2417 33.1555 31.4745 33.1356 31.5033C33.1028 31.5508 33.0894 31.5352 32.9886 31.3344C32.7679 30.8956 32.583 30.3418 32.4874 29.8269C32.3927 29.3173 32.4089 28.435 32.5228 27.8877C32.6074 27.4811 32.6037 27.4901 32.7951 27.392C33.6229 26.9678 36.317 25.7055 36.344 25.7293H36.3441ZM47.5694 26.1854V26.462C47.568 27.9139 47.4129 29.9017 47.1881 31.3521C47.1486 31.6067 47.1144 31.8167 47.1118 31.8193C47.1092 31.8218 46.9257 31.768 46.7046 31.6994C45.7276 31.3961 44.6683 30.943 43.7128 30.4193C43.0799 30.0726 42.1646 29.5108 42.1903 29.4851C42.1972 29.4781 42.4668 29.3353 42.7894 29.1678C44.0673 28.5045 45.288 27.7894 46.3492 27.0802C46.7474 26.8141 47.3431 26.3834 47.4754 26.2672L47.5694 26.1854ZM31.4292 28.1097C31.4558 28.1084 31.4491 28.1588 31.4075 28.3984C31.3785 28.565 31.3459 28.8799 31.334 29.097C31.2816 30.0487 31.4359 30.7509 31.9086 31.7117C32.04 31.9788 32.1428 32.2015 32.1374 32.206C32.0901 32.2456 27.786 33.5051 26.4328 33.8755C26.0317 33.9854 25.6811 34.0821 25.6525 34.0908C25.6055 34.1049 25.6013 34.0947 25.6185 33.9845C25.7667 33.0297 26.495 31.7764 27.5127 30.7243C28.1893 30.0249 28.731 29.6106 29.6521 29.0848C30.3131 28.7074 31.3398 28.141 31.4156 28.1124C31.42 28.1108 31.4246 28.1099 31.4293 28.1097H31.4292ZM41.5815 29.9277C41.5856 29.9228 41.7451 30.0081 41.9356 30.1184C43.3258 30.9223 45.2658 31.6765 46.9198 32.0548L47.0695 32.0889L46.8639 32.2033C45.9999 32.6827 43.1545 33.8666 40.2484 34.9568C39.824 35.116 39.4101 35.272 39.3291 35.3041C39.2481 35.3361 39.182 35.3581 39.182 35.3518C39.182 35.3454 39.3019 35.1147 39.4489 34.8397C40.2648 33.3142 41.0791 31.4605 41.4971 30.1742C41.5397 30.0431 41.5774 29.9326 41.5815 29.9277ZM40.5465 30.2668C40.551 30.2713 40.5001 30.4079 40.4335 30.5691C39.8663 31.9406 39.1232 33.4368 38.1756 35.1175C37.9345 35.5452 37.7313 35.8944 37.7235 35.8937C37.7158 35.8931 37.5197 35.777 37.2877 35.635C35.9076 34.7901 34.6864 33.75 33.8846 32.7384L33.7702 32.5955L34.3653 32.4321C36.488 31.8505 38.2881 31.2287 40.0781 30.4574C40.3315 30.3482 40.542 30.2623 40.5465 30.2668ZM46.9756 32.511C46.9787 32.5117 46.9797 32.5138 46.9797 32.5165C46.9797 32.6611 46.6513 34.0001 46.3778 34.9691C46.1483 35.7819 45.9557 36.4177 45.5988 37.5443C45.4412 38.0418 45.3059 38.4479 45.2979 38.4458C45.2698 38.4398 45.2417 38.4344 45.2134 38.4294C43.2798 38.0795 41.5479 37.5915 39.9256 36.9396C39.4716 36.7572 38.8163 36.4669 38.7816 36.433C38.7699 36.4216 39.1619 36.2369 39.6519 36.0231C42.6149 34.7303 45.6849 33.2581 46.7346 32.6269C46.8608 32.5509 46.9543 32.5066 46.9756 32.511ZM32.1347 33.019C32.1506 33.034 31.3217 34.2205 30.1641 35.8406C29.7618 36.4038 29.2892 37.0675 29.1142 37.3155C28.9127 37.6031 28.7161 37.8941 28.5245 38.1884L28.2508 38.6106L27.9593 38.3655C27.6174 38.0783 27.0189 37.4688 26.7474 37.1303C26.1887 36.4338 25.8101 35.7009 25.6607 35.0277C25.5917 34.7169 25.5896 34.5586 25.6552 34.5388C25.7499 34.5102 27.4882 34.101 29.1182 33.723C30.0237 33.5131 31.0706 33.2673 31.4455 33.177C31.8205 33.0866 32.131 33.0155 32.1347 33.019ZM32.9681 33.3377L33.1778 33.5719C34.1154 34.6163 35.069 35.3957 36.2323 36.0681C36.4378 36.1868 36.5943 36.29 36.581 36.2982C36.5325 36.3281 32.5579 37.7413 30.7198 38.3818C29.6831 38.743 28.8315 39.0375 28.8268 39.0368C28.8221 39.0361 28.7634 38.9977 28.6975 38.951L28.5776 38.8651L28.7655 38.5942C29.3754 37.7107 30.1417 36.7392 31.8187 34.7212L32.9681 33.3377ZM38.162 37.05C38.1666 37.0442 38.4572 37.1472 38.8088 37.2787C39.6565 37.5957 40.3218 37.8024 41.222 38.0277C42.3276 38.3044 43.9254 38.5812 44.8717 38.661C45.0169 38.6732 45.091 38.6898 45.0678 38.7046C45.0238 38.7324 44.0658 39.0523 43.3614 39.2737C42.2433 39.6252 38.8264 40.6347 36.0403 41.4363C35.5235 41.585 35.0816 41.7107 35.0585 41.7155C34.996 41.7285 34.7779 41.6712 34.7779 41.642C34.7779 41.628 34.9342 41.4303 35.1238 41.2034C36.0603 40.0833 36.9906 38.8322 37.7671 37.6491C37.9795 37.3256 38.1574 37.0557 38.162 37.0499L38.162 37.05ZM37.0113 37.0826C37.0197 37.091 36.5581 37.8302 35.7462 39.109C35.4574 39.5639 35.1691 40.0192 34.8814 40.4749C34.7482 40.6861 34.553 41.0072 34.4484 41.1898L34.2578 41.5221L34.161 41.4962C33.9278 41.4331 32.282 40.8517 31.8474 40.6792C31.3085 40.4653 30.747 40.207 30.333 39.9833C29.8156 39.7037 29.1594 39.2887 29.2109 39.2724C29.2257 39.2677 30.116 39.024 31.1882 38.7318C34.0405 37.9543 35.6183 37.5076 36.6531 37.1848C36.8465 37.1245 37.0076 37.0789 37.0113 37.0826ZM45.1126 38.9823C45.1188 38.981 45.1216 38.981 45.1222 38.9823C45.1491 39.0498 44.0932 41.9745 43.7073 42.9016C43.6208 43.1093 43.5889 43.1596 43.5439 43.1576C43.4346 43.1529 41.9036 42.9388 40.9769 42.7981C39.3547 42.5519 36.6375 42.0774 35.9518 41.9211L35.7925 41.8857L36.7648 41.6664C38.8489 41.1969 39.8498 40.9451 40.8652 40.6342C42.1458 40.2422 43.4139 39.7534 44.6946 39.158C44.8971 39.0639 45.0696 38.9917 45.1126 38.9823Z" fill="url(#paint0_linear_2348_12710)"/>
<path d="M40.2832 0.508062C40.1392 0.491276 37.8282 1.32389 36.3435 1.92708C34.3316 2.74447 32.7696 3.52763 31.806 4.20402C31.4472 4.45582 30.9962 4.90865 30.9303 5.08237C30.9057 5.14743 30.8941 5.22343 30.8936 5.30163L31.7678 6.12689L33.8418 6.78871L38.7825 7.67116L44.4299 8.64215L44.4871 8.15731C44.47 8.1547 44.4538 8.15184 44.4366 8.14917L43.6931 8.03206L43.542 7.76647C42.7744 6.41213 41.9262 4.73617 41.4339 3.60213C41.0527 2.72378 40.6865 1.71205 40.4834 0.979247C40.3627 0.544106 40.3502 0.515935 40.2832 0.508062ZM40.1743 0.843136C40.18 0.84203 40.1828 0.84203 40.1837 0.843136C40.1883 0.848536 40.2146 1.03019 40.241 1.2462C40.3521 2.15578 40.5556 3.03803 40.8742 3.98749C41.1143 4.70299 41.1177 4.66096 40.832 4.58126C40.1679 4.39589 37.1926 3.88515 35.0402 3.5871C34.6934 3.53908 34.4047 3.4964 34.4002 3.49178C34.3729 3.46445 35.9524 2.63685 36.6527 2.31108C37.5507 1.89325 39.9962 0.875146 40.1743 0.84307V0.843136ZM33.9031 3.756L34.155 3.84175C35.5369 4.31216 39.0005 4.97378 40.9151 5.13279C41.1311 5.15069 41.3126 5.16994 41.3181 5.17495C41.3237 5.17996 41.1402 5.27808 40.911 5.39292C39.9874 5.85551 38.9708 6.41941 38.2677 6.85956C38.0612 6.98878 37.8718 7.09301 37.8469 7.09106C37.822 7.0891 37.6858 7.06718 37.5432 7.04337L37.2831 7.00114L36.6294 6.36658C35.4819 5.25596 34.586 4.39667 34.2395 4.07195L33.9031 3.756ZM33.6471 3.9603L34.5623 5.1028C35.066 5.73131 35.5709 6.35493 35.683 6.48916C35.795 6.62338 35.8818 6.73705 35.8764 6.74108C35.8504 6.76008 34.55 6.50686 33.8609 6.34888C33.1534 6.18662 32.8609 6.109 32.4229 5.96892L32.0661 5.85454L32.0674 5.76605C32.0719 5.32714 32.6251 4.67976 33.564 4.01742L33.6471 3.96023V3.9603ZM41.4407 5.51679C41.4682 5.51894 41.4971 5.5747 41.5782 5.75239C41.8002 6.23867 42.4911 7.55652 42.6582 7.81143C42.7131 7.89536 42.8004 7.90102 41.8833 7.75287C39.6793 7.39685 38.9663 7.27772 38.9663 7.26399C38.9663 7.2556 39.0324 7.21233 39.1133 7.16731C39.7958 6.78773 40.4845 6.31004 41.0976 5.79325C41.2441 5.66963 41.3849 5.55199 41.4108 5.53039C41.4214 5.52155 41.4316 5.51608 41.4407 5.51679Z" fill="url(#paint1_linear_2348_12710)"/>
<path d="M30.9695 4.99414C30.9695 4.99414 30.8265 5.22088 30.9614 5.55798C31.0448 5.7665 31.2954 6.01706 31.5715 6.28245C31.5715 6.28245 34.4637 9.10364 34.818 9.51263C36.4205 11.3621 37.1165 13.1828 37.1808 15.6966C37.222 17.3097 36.9109 18.7277 36.1553 20.3757C34.801 23.3296 31.9476 26.5871 27.5405 30.2093L28.1874 29.9955C28.6031 29.6841 29.1678 29.3514 30.4997 28.6228C33.5671 26.945 37.0117 25.4017 41.243 23.8116C47.3308 21.5237 57.3448 18.8395 63.0428 17.9667L63.6365 17.8755L63.5453 17.7325C63.0243 16.9226 62.6686 16.4233 62.2407 15.8941C60.9909 14.3486 59.4779 13.0875 57.6242 12.0497C55.0768 10.6235 51.7727 9.5151 47.5958 8.68464C46.8062 8.52764 45.0769 8.23121 43.6697 8.01189C40.689 7.54734 38.7664 7.23373 36.6428 6.86392C35.8815 6.73184 34.7447 6.54088 33.99 6.37777C33.5968 6.29273 32.8495 6.11602 32.2687 5.91608C31.7892 5.72733 31.114 5.54483 30.9695 4.99414ZM32.6459 6.62149C32.65 6.61785 32.7586 6.65142 32.891 6.69645C33.1352 6.77927 33.4572 6.87628 33.832 6.98103C34.1172 7.06044 34.4032 7.13669 34.69 7.20979C35.0813 7.30986 35.4049 7.39587 35.409 7.40043C35.4524 7.44922 36.1096 9.54672 36.3337 10.3515C36.4193 10.6586 36.4842 10.9146 36.4781 10.9208C36.4719 10.9268 36.399 10.8138 36.3174 10.6702C35.5571 9.33305 34.3529 7.9733 32.9605 6.87895C32.7869 6.74251 32.6459 6.6267 32.6459 6.62149ZM35.8503 7.50667C35.8837 7.5044 36.0281 7.52853 36.2003 7.5666C37.3091 7.81182 39.2889 8.19406 40.5621 8.40819C40.7742 8.4439 40.9489 8.48236 40.9489 8.494C40.9489 8.50565 40.8696 8.55581 40.7732 8.60428C40.5595 8.71177 39.6951 9.22915 39.4059 9.42278C38.6839 9.906 38.0348 10.4232 37.562 10.8935C37.372 11.0825 37.2131 11.2367 37.208 11.2367C37.2028 11.2367 37.1696 11.1265 37.1344 10.9916C36.8981 10.0856 36.4094 8.74781 35.9714 7.80629C35.901 7.65476 35.8435 7.52118 35.8435 7.50941C35.8435 7.50791 35.8454 7.507 35.8503 7.50674V7.50667ZM41.4868 8.57845C41.5238 8.59082 41.594 8.80969 41.7182 9.30156C41.9562 10.2434 42.067 11.3012 42.0302 12.2798C42.0199 12.5522 42.0026 12.8051 41.992 12.8422L41.9716 12.9103L41.6352 12.8014C40.9418 12.5798 39.8089 12.2462 38.838 11.9775C38.2865 11.8248 37.8344 11.6886 37.8344 11.6752C37.8344 11.6348 38.6392 10.8303 38.9852 10.5244C39.6459 9.94028 41.4237 8.55744 41.4868 8.57839L41.4868 8.57845ZM41.9348 8.64241C41.9549 8.62374 44.6283 9.08666 45.8432 9.31926C46.7487 9.49259 48.0589 9.76696 48.1378 9.79994C48.1759 9.81588 48.0403 9.88973 47.6053 10.086C45.8847 10.8619 44.61 11.5544 43.3429 12.4024C43.0092 12.6258 42.7318 12.8082 42.726 12.8082C42.7202 12.8082 42.7153 12.6218 42.7151 12.3942C42.7142 11.1585 42.4676 9.91133 42.0151 8.85757C41.9665 8.74417 41.9299 8.64696 41.9348 8.64241ZM48.8473 10.0097C48.868 10.0304 48.7803 10.5575 48.7043 10.869C48.4678 11.8382 47.8409 13.2768 47.0675 14.629C46.9311 14.8672 46.8092 15.0659 46.7951 15.0701C46.7809 15.0745 46.6048 14.9818 46.4043 14.8645C45.6478 14.4221 44.7914 14.0036 43.8509 13.6157C43.5886 13.5076 43.3652 13.4113 43.3538 13.4006C43.3109 13.3603 45.401 11.9766 46.5091 11.3115C47.3954 10.7797 48.8225 9.98479 48.8473 10.0096V10.0097ZM49.3417 10.0873C49.4018 10.0873 50.5875 10.4106 51.2005 10.5939C52.7275 11.0506 54.4891 11.6941 55.6318 12.2131L56.1071 12.4282L55.7721 12.5058C52.976 13.1482 50.5795 13.8895 48.2713 14.8264C48.0795 14.9043 47.9126 14.968 47.9008 14.968C47.8891 14.968 47.9504 14.8197 48.0357 14.6385C48.7296 13.1643 49.1776 11.6173 49.294 10.3039C49.3046 10.1843 49.3262 10.0873 49.3417 10.0873ZM37.5566 12.7959C37.5755 12.7772 38.4779 12.9887 38.9702 13.1269C39.71 13.3345 41.2842 13.8614 41.2853 13.9018C41.2853 13.9096 41.1117 14.0608 40.8998 14.2381C40.0487 14.9501 39.2277 15.6946 38.2443 16.6444C37.9528 16.926 37.705 17.1551 37.6928 17.1551C37.6806 17.1551 37.6751 17.114 37.6819 17.0638C37.83 15.9706 37.7981 14.5667 37.592 13.1377C37.5659 12.9566 37.5501 12.8024 37.5566 12.796V12.7959ZM56.5592 12.8137C56.5727 12.8272 56.1405 13.5027 55.8715 13.8881C55.479 14.4504 54.9099 15.1887 53.6136 16.8187C53.0434 17.5356 52.4742 18.2532 51.9059 18.9717C51.6472 19.2996 51.4301 19.5682 51.4238 19.5682C51.4176 19.5682 51.3341 19.4508 51.2386 19.3081C50.5079 18.2163 49.6408 17.2574 48.6063 16.3965C48.4132 16.2358 48.1954 16.0597 48.1228 16.0057C48.0502 15.9517 47.9911 15.9017 47.9908 15.8941C47.9901 15.8762 49.0949 15.4024 49.9381 15.0593C51.4062 14.4619 53.4126 13.7465 54.9141 13.2862C55.7059 13.0435 56.5472 12.8016 56.5592 12.8137ZM57.0576 12.9444C57.0813 12.9396 57.2389 13.0158 57.4281 13.1241C59.0094 14.03 60.5591 15.1933 61.7776 16.3898C62.1243 16.73 62.9723 17.6122 62.9597 17.6195C62.9565 17.6213 62.6636 17.6445 62.3088 17.6712C59.5684 17.8773 56.0648 18.4603 52.6917 19.2713C52.4627 19.3264 52.2645 19.3721 52.2519 19.3721C52.2391 19.3721 52.4899 19.1204 52.8088 18.8138C54.7897 16.9094 55.6934 15.7069 56.7567 13.5586C56.915 13.2386 57.0493 12.9626 57.0549 12.9457C57.0553 12.9447 57.056 12.9447 57.0576 12.9444ZM42.5735 14.4287C42.6639 14.4491 43.5088 14.8421 44.1464 15.1614C44.7294 15.4533 45.6126 15.9235 45.6566 15.9649C45.6622 15.9701 45.351 16.1325 44.9648 16.3257C43.742 16.9375 42.6947 17.5152 41.6011 18.1833C41.2894 18.3737 41.0279 18.5305 41.0197 18.5305C40.9923 18.5305 41.0031 18.5069 41.1776 18.1873C41.76 17.1208 42.2297 15.8474 42.5 14.603C42.5241 14.492 42.5531 14.4242 42.5735 14.4287ZM41.7223 14.5813C41.74 14.5989 41.5208 15.4041 41.3819 15.8341C41.1156 16.6589 40.6653 17.6956 40.2325 18.476C40.1206 18.6768 40.0053 18.8756 39.8867 19.0725L39.726 19.3354L39.361 18.9826C38.9369 18.5715 38.5915 18.3162 38.1503 18.0893C37.977 18.0001 37.836 17.9175 37.8358 17.9054C37.835 17.8518 38.9453 16.842 39.8022 16.1174C40.4156 15.5987 41.7067 14.5656 41.7223 14.5812V14.5813ZM46.8945 16.7084L47.2118 16.914C47.9397 17.3867 48.8016 18.0224 49.4588 18.57C49.827 18.8769 50.5427 19.5177 50.6898 19.673L50.7688 19.7561L50.2418 19.9032C47.2611 20.7302 44.9582 21.4664 42.2712 22.4538C41.973 22.5635 41.7155 22.654 41.6978 22.654C41.6607 22.654 41.624 22.6881 42.2943 22.0712C44.0129 20.4895 45.5312 18.7469 46.6657 17.0516L46.8945 16.7084ZM45.5354 17.0489C45.551 17.0645 44.6545 18.3199 44.1219 19.0289C43.4846 19.8771 42.3495 21.2951 41.5685 22.2183C41.2422 22.6039 40.9626 22.924 40.9475 22.9291C40.9309 22.9348 40.9206 22.8403 40.9203 22.6908C40.9188 21.9031 40.7195 21.0613 40.3673 20.3485C40.2187 20.0474 40.1938 19.9745 40.2244 19.9468C40.3469 19.8357 42.243 18.7545 43.4382 18.1138C44.2593 17.6737 45.5198 17.0332 45.5354 17.0489H45.5354ZM37.3156 19.0629C37.3318 19.0629 37.484 19.1394 37.6532 19.2332C38.0683 19.4631 38.4411 19.716 38.77 19.9903C38.7827 20.001 38.6123 20.1401 38.3914 20.2995C37.7746 20.7445 36.8355 21.4533 36.2915 21.886C35.7176 22.3425 35.6986 22.3565 35.7631 22.2577C36.1929 21.6005 36.409 21.2283 36.6347 20.753C36.8353 20.3304 37.0352 19.8289 37.178 19.3925C37.2374 19.2112 37.2993 19.0629 37.3156 19.0629ZM39.5053 20.7816C39.535 20.7779 39.5772 20.833 39.7532 21.0962C40.1242 21.6505 40.4084 22.3899 40.4817 22.9918L40.4967 23.1211L39.6075 23.4657C38.0112 24.0851 36.5418 24.6957 35.5493 25.1502C35.1842 25.3189 34.8214 25.4928 34.4612 25.6718C34.1411 25.832 33.8797 25.9578 33.8797 25.951C33.8797 25.9441 34.0808 25.7929 34.3264 25.6146C36.2744 24.2004 37.954 22.6521 39.2194 21.1043C39.3547 20.9388 39.4776 20.7952 39.4931 20.7857C39.4968 20.7834 39.501 20.782 39.5053 20.7816ZM38.4949 21.0321C38.5207 21.0579 37.7762 21.8999 37.2747 22.4117C36.0197 23.6925 34.7755 24.6967 33.2342 25.6746C33.0414 25.7969 32.8651 25.9075 32.842 25.921C32.7998 25.9457 32.8557 25.8821 33.5325 25.1448C33.9589 24.6801 34.2853 24.2945 34.6559 23.813C34.9 23.4959 34.9466 23.4514 35.3042 23.1933C36.2673 22.4981 38.4693 21.0066 38.4948 21.0321L38.4949 21.0321Z" fill="url(#paint2_radial_2348_12710)"/>
<defs>
<linearGradient id="paint0_linear_2348_12710" x1="32.4741" y1="42.0165" x2="49.3683" y2="32.0339" gradientUnits="userSpaceOnUse">
<stop stop-color="#909CA9"/>
<stop offset="1" stop-color="#EDEDEE"/>
</linearGradient>
<linearGradient id="paint1_linear_2348_12710" x1="30.8935" y1="4.57493" x2="44.4871" y2="4.57493" gradientUnits="userSpaceOnUse">
<stop stop-color="#939FAB"/>
<stop offset="1" stop-color="#DCDEE1"/>
</linearGradient>
<radialGradient id="paint2_radial_2348_12710" cx="0" cy="0" r="1" gradientUnits="userSpaceOnUse" gradientTransform="translate(43.7164 16.1041) rotate(-171.401) scale(17.5378 35.0269)">
<stop stop-color="#EE352C"/>
<stop offset="1" stop-color="#A91D22"/>
</radialGradient>
<clipPath id="clip0_2348_12710">
<rect width="58.1053" height="64" fill="white" transform="translate(9 12)"/>
</clipPath>
</defs>
</svg>
